<mxfile host="app.diagrams.net" modified="2024-05-09T19:52:55.029Z" agent="Mozilla/5.0 (Windows NT 10.0; Win64; x64) AppleWebKit/537.36 (KHTML, like Gecko) Chrome/124.0.0.0 Safari/537.36" etag="3mJRgY1uJg3at_Yn1UQX" version="24.3.1" type="google">
  <diagram name="Página-1" id="PzU6PSL0DyonIl8RBBfZ">
    <mxGraphModel grid="1" page="1" gridSize="10" guides="1" tooltips="1" connect="1" arrows="1" fold="1" pageScale="1" pageWidth="827" pageHeight="1169" math="0" shadow="0">
      <root>
        <mxCell id="0" />
        <mxCell id="1" parent="0" />
        <mxCell id="Jmvj8wVyLZmzGxpmxZb7-1" value="LlenadoCamionMain" style="swimlane;whiteSpace=wrap;html=1;" vertex="1" parent="1">
          <mxGeometry width="440" height="1040" as="geometry" />
        </mxCell>
        <mxCell id="Jmvj8wVyLZmzGxpmxZb7-38" style="edgeStyle=orthogonalEdgeStyle;rounded=0;orthogonalLoop=1;jettySize=auto;html=1;" edge="1" parent="Jmvj8wVyLZmzGxpmxZb7-1" source="Jmvj8wVyLZmzGxpmxZb7-35" target="Jmvj8wVyLZmzGxpmxZb7-37">
          <mxGeometry relative="1" as="geometry" />
        </mxCell>
        <mxCell id="Jmvj8wVyLZmzGxpmxZb7-35" value="Inicio programa" style="ellipse;whiteSpace=wrap;html=1;" vertex="1" parent="Jmvj8wVyLZmzGxpmxZb7-1">
          <mxGeometry x="115" y="60" width="120" height="80" as="geometry" />
        </mxCell>
        <mxCell id="Jmvj8wVyLZmzGxpmxZb7-36" value="Solicitud de opción entre 1 y 9" style="rounded=0;whiteSpace=wrap;html=1;" vertex="1" parent="Jmvj8wVyLZmzGxpmxZb7-1">
          <mxGeometry x="115" y="290" width="120" height="60" as="geometry" />
        </mxCell>
        <mxCell id="Jmvj8wVyLZmzGxpmxZb7-39" style="edgeStyle=orthogonalEdgeStyle;rounded=0;orthogonalLoop=1;jettySize=auto;html=1;" edge="1" parent="Jmvj8wVyLZmzGxpmxZb7-1" source="Jmvj8wVyLZmzGxpmxZb7-37" target="Jmvj8wVyLZmzGxpmxZb7-36">
          <mxGeometry relative="1" as="geometry" />
        </mxCell>
        <mxCell id="Jmvj8wVyLZmzGxpmxZb7-37" value="Mostrar menú con las 9 opciones disponibles." style="rounded=0;whiteSpace=wrap;html=1;" vertex="1" parent="Jmvj8wVyLZmzGxpmxZb7-1">
          <mxGeometry x="100" y="180" width="150" height="60" as="geometry" />
        </mxCell>
        <mxCell id="Jmvj8wVyLZmzGxpmxZb7-45" style="edgeStyle=orthogonalEdgeStyle;rounded=0;orthogonalLoop=1;jettySize=auto;html=1;" edge="1" parent="Jmvj8wVyLZmzGxpmxZb7-1" source="Jmvj8wVyLZmzGxpmxZb7-42" target="Jmvj8wVyLZmzGxpmxZb7-44">
          <mxGeometry relative="1" as="geometry" />
        </mxCell>
        <mxCell id="Jmvj8wVyLZmzGxpmxZb7-42" value="Comprobar opción" style="rounded=0;whiteSpace=wrap;html=1;" vertex="1" parent="Jmvj8wVyLZmzGxpmxZb7-1">
          <mxGeometry x="115" y="400" width="120" height="60" as="geometry" />
        </mxCell>
        <mxCell id="Jmvj8wVyLZmzGxpmxZb7-47" style="edgeStyle=orthogonalEdgeStyle;rounded=0;orthogonalLoop=1;jettySize=auto;html=1;" edge="1" parent="Jmvj8wVyLZmzGxpmxZb7-1" source="Jmvj8wVyLZmzGxpmxZb7-44" target="Jmvj8wVyLZmzGxpmxZb7-46">
          <mxGeometry relative="1" as="geometry" />
        </mxCell>
        <mxCell id="Jmvj8wVyLZmzGxpmxZb7-56" value="SI" style="edgeLabel;html=1;align=center;verticalAlign=middle;resizable=0;points=[];" connectable="0" vertex="1" parent="Jmvj8wVyLZmzGxpmxZb7-47">
          <mxGeometry x="-0.4616" y="-1" relative="1" as="geometry">
            <mxPoint y="-11" as="offset" />
          </mxGeometry>
        </mxCell>
        <mxCell id="Jmvj8wVyLZmzGxpmxZb7-55" style="edgeStyle=orthogonalEdgeStyle;rounded=0;orthogonalLoop=1;jettySize=auto;html=1;" edge="1" parent="Jmvj8wVyLZmzGxpmxZb7-1" source="Jmvj8wVyLZmzGxpmxZb7-44" target="Jmvj8wVyLZmzGxpmxZb7-54">
          <mxGeometry relative="1" as="geometry" />
        </mxCell>
        <mxCell id="Jmvj8wVyLZmzGxpmxZb7-58" value="NO" style="edgeLabel;html=1;align=center;verticalAlign=middle;resizable=0;points=[];" connectable="0" vertex="1" parent="Jmvj8wVyLZmzGxpmxZb7-55">
          <mxGeometry x="-0.7333" relative="1" as="geometry">
            <mxPoint x="15" as="offset" />
          </mxGeometry>
        </mxCell>
        <mxCell id="Jmvj8wVyLZmzGxpmxZb7-44" value="&lt;font style=&quot;font-size: 11px;&quot;&gt;¿Es generador de carga/test de rendimiento?&lt;/font&gt;" style="rhombus;whiteSpace=wrap;html=1;" vertex="1" parent="Jmvj8wVyLZmzGxpmxZb7-1">
          <mxGeometry x="110" y="490" width="130" height="80" as="geometry" />
        </mxCell>
        <mxCell id="Jmvj8wVyLZmzGxpmxZb7-46" value="Solicitar opción" style="rounded=0;whiteSpace=wrap;html=1;" vertex="1" parent="Jmvj8wVyLZmzGxpmxZb7-1">
          <mxGeometry x="293" y="500" width="120" height="60" as="geometry" />
        </mxCell>
        <mxCell id="Jmvj8wVyLZmzGxpmxZb7-52" style="edgeStyle=orthogonalEdgeStyle;rounded=0;orthogonalLoop=1;jettySize=auto;html=1;entryX=0;entryY=0.25;entryDx=0;entryDy=0;" edge="1" parent="Jmvj8wVyLZmzGxpmxZb7-1" source="Jmvj8wVyLZmzGxpmxZb7-50" target="Jmvj8wVyLZmzGxpmxZb7-37">
          <mxGeometry relative="1" as="geometry">
            <Array as="points">
              <mxPoint x="400" y="1010" />
              <mxPoint x="20" y="1010" />
              <mxPoint x="20" y="195" />
            </Array>
          </mxGeometry>
        </mxCell>
        <mxCell id="Jmvj8wVyLZmzGxpmxZb7-50" value="Ejecutar generador/test" style="rounded=0;whiteSpace=wrap;html=1;" vertex="1" parent="Jmvj8wVyLZmzGxpmxZb7-1">
          <mxGeometry x="293" y="610" width="120" height="60" as="geometry" />
        </mxCell>
        <mxCell id="Jmvj8wVyLZmzGxpmxZb7-66" style="edgeStyle=orthogonalEdgeStyle;rounded=0;orthogonalLoop=1;jettySize=auto;html=1;" edge="1" parent="Jmvj8wVyLZmzGxpmxZb7-1" source="Jmvj8wVyLZmzGxpmxZb7-54" target="Jmvj8wVyLZmzGxpmxZb7-61">
          <mxGeometry relative="1" as="geometry" />
        </mxCell>
        <mxCell id="Jmvj8wVyLZmzGxpmxZb7-71" value="SI" style="edgeLabel;html=1;align=center;verticalAlign=middle;resizable=0;points=[];" connectable="0" vertex="1" parent="Jmvj8wVyLZmzGxpmxZb7-66">
          <mxGeometry x="-0.6525" y="-1" relative="1" as="geometry">
            <mxPoint x="11" y="12" as="offset" />
          </mxGeometry>
        </mxCell>
        <mxCell id="Jmvj8wVyLZmzGxpmxZb7-68" style="edgeStyle=orthogonalEdgeStyle;rounded=0;orthogonalLoop=1;jettySize=auto;html=1;" edge="1" parent="Jmvj8wVyLZmzGxpmxZb7-1" source="Jmvj8wVyLZmzGxpmxZb7-54" target="Jmvj8wVyLZmzGxpmxZb7-67">
          <mxGeometry relative="1" as="geometry">
            <Array as="points">
              <mxPoint x="240" y="650" />
              <mxPoint x="240" y="720" />
              <mxPoint x="320" y="720" />
            </Array>
          </mxGeometry>
        </mxCell>
        <mxCell id="Jmvj8wVyLZmzGxpmxZb7-70" value="NO" style="edgeLabel;html=1;align=center;verticalAlign=middle;resizable=0;points=[];" connectable="0" vertex="1" parent="Jmvj8wVyLZmzGxpmxZb7-68">
          <mxGeometry x="-0.9065" y="2" relative="1" as="geometry">
            <mxPoint x="3" y="-8" as="offset" />
          </mxGeometry>
        </mxCell>
        <mxCell id="Jmvj8wVyLZmzGxpmxZb7-54" value="&lt;span style=&quot;font-size: 11px;&quot;&gt;¿Es un método?&lt;/span&gt;" style="rhombus;whiteSpace=wrap;html=1;" vertex="1" parent="Jmvj8wVyLZmzGxpmxZb7-1">
          <mxGeometry x="85" y="610" width="130" height="80" as="geometry" />
        </mxCell>
        <mxCell id="Jmvj8wVyLZmzGxpmxZb7-64" style="edgeStyle=orthogonalEdgeStyle;rounded=0;orthogonalLoop=1;jettySize=auto;html=1;" edge="1" parent="Jmvj8wVyLZmzGxpmxZb7-1" source="Jmvj8wVyLZmzGxpmxZb7-61" target="Jmvj8wVyLZmzGxpmxZb7-63">
          <mxGeometry relative="1" as="geometry" />
        </mxCell>
        <mxCell id="Jmvj8wVyLZmzGxpmxZb7-72" value="" style="edgeStyle=orthogonalEdgeStyle;rounded=0;orthogonalLoop=1;jettySize=auto;html=1;" edge="1" parent="Jmvj8wVyLZmzGxpmxZb7-1" source="Jmvj8wVyLZmzGxpmxZb7-61" target="Jmvj8wVyLZmzGxpmxZb7-63">
          <mxGeometry relative="1" as="geometry" />
        </mxCell>
        <mxCell id="Jmvj8wVyLZmzGxpmxZb7-73" value="SI" style="edgeLabel;html=1;align=center;verticalAlign=middle;resizable=0;points=[];" connectable="0" vertex="1" parent="Jmvj8wVyLZmzGxpmxZb7-72">
          <mxGeometry x="-0.5797" y="-2" relative="1" as="geometry">
            <mxPoint x="7" as="offset" />
          </mxGeometry>
        </mxCell>
        <mxCell id="Jmvj8wVyLZmzGxpmxZb7-75" style="edgeStyle=orthogonalEdgeStyle;rounded=0;orthogonalLoop=1;jettySize=auto;html=1;entryX=0;entryY=0.5;entryDx=0;entryDy=0;" edge="1" parent="Jmvj8wVyLZmzGxpmxZb7-1" source="Jmvj8wVyLZmzGxpmxZb7-61" target="Jmvj8wVyLZmzGxpmxZb7-37">
          <mxGeometry relative="1" as="geometry">
            <Array as="points">
              <mxPoint x="50" y="770" />
              <mxPoint x="50" y="210" />
            </Array>
          </mxGeometry>
        </mxCell>
        <mxCell id="Jmvj8wVyLZmzGxpmxZb7-76" value="NO" style="edgeLabel;html=1;align=center;verticalAlign=middle;resizable=0;points=[];" connectable="0" vertex="1" parent="Jmvj8wVyLZmzGxpmxZb7-75">
          <mxGeometry x="-0.8445" relative="1" as="geometry">
            <mxPoint x="20" as="offset" />
          </mxGeometry>
        </mxCell>
        <mxCell id="Jmvj8wVyLZmzGxpmxZb7-61" value="&lt;span style=&quot;font-size: 11px;&quot;&gt;¿Existe carga?&lt;/span&gt;" style="rhombus;whiteSpace=wrap;html=1;" vertex="1" parent="Jmvj8wVyLZmzGxpmxZb7-1">
          <mxGeometry x="80" y="730" width="130" height="80" as="geometry" />
        </mxCell>
        <mxCell id="Jmvj8wVyLZmzGxpmxZb7-63" value="Ejecutar método" style="rounded=0;whiteSpace=wrap;html=1;" vertex="1" parent="Jmvj8wVyLZmzGxpmxZb7-1">
          <mxGeometry x="85" y="840" width="120" height="60" as="geometry" />
        </mxCell>
        <mxCell id="Jmvj8wVyLZmzGxpmxZb7-67" value="Fin de la ejecución" style="ellipse;whiteSpace=wrap;html=1;" vertex="1" parent="Jmvj8wVyLZmzGxpmxZb7-1">
          <mxGeometry x="260" y="910" width="120" height="80" as="geometry" />
        </mxCell>
        <mxCell id="Jmvj8wVyLZmzGxpmxZb7-20" value="Usuario" style="swimlane;whiteSpace=wrap;html=1;" vertex="1" parent="1">
          <mxGeometry x="440" width="380" height="1040" as="geometry" />
        </mxCell>
        <mxCell id="Jmvj8wVyLZmzGxpmxZb7-40" value="Introducir una opción" style="rounded=0;whiteSpace=wrap;html=1;" vertex="1" parent="Jmvj8wVyLZmzGxpmxZb7-20">
          <mxGeometry x="130" y="290" width="120" height="60" as="geometry" />
        </mxCell>
        <mxCell id="Jmvj8wVyLZmzGxpmxZb7-48" value="Seleccionar/Introducir Opción/Carga" style="rounded=0;whiteSpace=wrap;html=1;" vertex="1" parent="Jmvj8wVyLZmzGxpmxZb7-20">
          <mxGeometry x="130" y="500" width="120" height="60" as="geometry" />
        </mxCell>
        <mxCell id="Jmvj8wVyLZmzGxpmxZb7-41" style="edgeStyle=orthogonalEdgeStyle;rounded=0;orthogonalLoop=1;jettySize=auto;html=1;" edge="1" parent="1" source="Jmvj8wVyLZmzGxpmxZb7-36" target="Jmvj8wVyLZmzGxpmxZb7-40">
          <mxGeometry relative="1" as="geometry" />
        </mxCell>
        <mxCell id="Jmvj8wVyLZmzGxpmxZb7-43" style="edgeStyle=orthogonalEdgeStyle;rounded=0;orthogonalLoop=1;jettySize=auto;html=1;entryX=1;entryY=0.5;entryDx=0;entryDy=0;" edge="1" parent="1" source="Jmvj8wVyLZmzGxpmxZb7-40" target="Jmvj8wVyLZmzGxpmxZb7-42">
          <mxGeometry relative="1" as="geometry">
            <Array as="points">
              <mxPoint x="630" y="430" />
            </Array>
          </mxGeometry>
        </mxCell>
        <mxCell id="Jmvj8wVyLZmzGxpmxZb7-49" style="edgeStyle=orthogonalEdgeStyle;rounded=0;orthogonalLoop=1;jettySize=auto;html=1;entryX=0;entryY=0.5;entryDx=0;entryDy=0;" edge="1" parent="1" source="Jmvj8wVyLZmzGxpmxZb7-46" target="Jmvj8wVyLZmzGxpmxZb7-48">
          <mxGeometry relative="1" as="geometry" />
        </mxCell>
        <mxCell id="Jmvj8wVyLZmzGxpmxZb7-51" style="edgeStyle=orthogonalEdgeStyle;rounded=0;orthogonalLoop=1;jettySize=auto;html=1;entryX=1;entryY=0.5;entryDx=0;entryDy=0;" edge="1" parent="1" source="Jmvj8wVyLZmzGxpmxZb7-48" target="Jmvj8wVyLZmzGxpmxZb7-50">
          <mxGeometry relative="1" as="geometry">
            <Array as="points">
              <mxPoint x="630" y="640" />
            </Array>
          </mxGeometry>
        </mxCell>
      </root>
    </mxGraphModel>
  </diagram>
</mxfile>
